<svg width="410" height="410" viewBox="0 0 410 410" fill="none" xmlns="http://www.w3.org/2000/svg">
    <g clip-path="url(#clip0_3176_1927)">
        <g opacity="0.6" filter="url(#filter0_f_3176_1927)">
            <path fill-rule="evenodd" clip-rule="evenodd" d="M168.317 42.223C157.263 31.1692 139.341 31.1692 128.287 42.223L53.1615 117.349C42.1076 128.403 42.1076 146.324 53.1615 157.378L128.287 232.504C139.341 243.558 157.263 243.558 168.317 232.504L242.294 158.527C253.347 147.473 271.269 147.473 282.323 158.527L299.308 175.512C310.362 186.566 328.283 186.566 339.337 175.512L357.587 157.262C368.641 146.208 368.641 128.287 357.587 117.233L339.337 98.9831C328.283 87.9292 310.362 87.9292 299.308 98.983L282.207 116.084C271.153 127.138 253.231 127.138 242.178 116.084L168.317 42.223Z" fill="#167EB4"/>
        </g>
        <g opacity="0.5" filter="url(#filter1_f_3176_1927)">
            <path fill-rule="evenodd" clip-rule="evenodd" d="M168.317 42.223C157.263 31.1692 139.341 31.1692 128.287 42.223L53.1615 117.349C42.1076 128.403 42.1076 146.324 53.1615 157.378L128.287 232.504C139.341 243.558 157.263 243.558 168.317 232.504L242.294 158.527C253.347 147.473 271.269 147.473 282.323 158.527L299.308 175.512C310.362 186.566 328.283 186.566 339.337 175.512L357.587 157.262C368.641 146.208 368.641 128.287 357.587 117.233L339.337 98.9831C328.283 87.9292 310.362 87.9292 299.308 98.983L282.207 116.084C271.153 127.138 253.231 127.138 242.178 116.084L168.317 42.223Z" fill="#167EB4"/>
        </g>
        <g opacity="0.5" filter="url(#filter2_f_3176_1927)">
            <path fill-rule="evenodd" clip-rule="evenodd" d="M242.519 178.286C253.573 167.233 271.495 167.233 282.549 178.286L357.674 253.412C368.728 264.466 368.728 282.388 357.674 293.442L282.549 368.567C271.495 379.621 253.573 379.621 242.519 368.567L168.542 294.591C157.489 283.537 139.567 283.537 128.513 294.591L111.528 311.575C100.474 322.629 82.5526 322.629 71.4987 311.575L53.2491 293.326C42.1953 282.272 42.1952 264.35 53.2491 253.296L71.4987 235.047C82.5526 223.993 100.474 223.993 111.528 235.047L128.629 252.147C139.683 263.201 157.605 263.201 168.658 252.147L242.519 178.286Z" fill="#167EB4"/>
        </g>
        <path fill-rule="evenodd" clip-rule="evenodd" d="M168.317 42.223C157.263 31.1692 139.341 31.1692 128.287 42.223L53.1615 117.349C42.1076 128.403 42.1076 146.324 53.1615 157.378L128.287 232.504C139.341 243.558 157.263 243.558 168.317 232.504L242.294 158.527C253.347 147.473 271.269 147.473 282.323 158.527L299.308 175.512C310.362 186.566 328.283 186.566 339.337 175.512L357.587 157.262C368.641 146.208 368.641 128.287 357.587 117.233L339.337 98.9831C328.283 87.9292 310.362 87.9292 299.308 98.983L282.207 116.084C271.153 127.138 253.231 127.138 242.178 116.084L168.317 42.223Z" fill="#167EB4"/>
        <path fill-rule="evenodd" clip-rule="evenodd" d="M242.519 177.522C253.573 166.468 271.495 166.468 282.549 177.522L357.674 252.648C368.728 263.701 368.728 281.623 357.674 292.677L282.549 367.803C271.495 378.857 253.573 378.857 242.519 367.803L168.542 293.826C157.489 282.772 139.567 282.772 128.513 293.826L111.528 310.811C100.474 321.865 82.5526 321.865 71.4987 310.811L53.2491 292.561C42.1953 281.507 42.1953 263.585 53.2491 252.532L71.4987 234.282C82.5526 223.228 100.474 223.228 111.528 234.282L128.629 251.383C139.683 262.436 157.605 262.436 168.658 251.383L242.519 177.522Z" fill="#167EB4"/>
        <path d="M133.885 140.948V155.5H126.609V162.775H137.523V170.051H144.798V162.775H152.074V170.051H159.35V162.59C166.509 161.684 172.082 155.623 172.082 148.224C172.082 143.422 169.717 139.188 166.116 136.536C168.773 133.83 170.262 130.189 170.263 126.397C170.263 119.638 165.61 113.989 159.35 112.362V104.57H152.074V111.846H144.798V104.57H137.523V111.846H126.609V119.122H133.885V140.948ZM157.531 155.5H141.161V140.948H157.531C161.543 140.948 164.806 144.211 164.806 148.224C164.806 152.236 161.543 155.5 157.531 155.5ZM141.161 119.122H155.712C159.724 119.122 162.987 122.385 162.987 126.397C162.987 130.41 159.724 133.673 155.712 133.673H141.161V119.122Z" fill="white"/>
        <path fill-rule="evenodd" clip-rule="evenodd" d="M304.802 120.424C304.932 120.28 305.098 120.175 305.284 120.118C305.469 120.062 305.666 120.056 305.854 120.102L328.483 125.642C328.619 125.674 328.744 125.732 328.857 125.816L333.461 129.175C333.685 129.34 333.837 129.584 333.885 129.858C333.933 130.132 333.873 130.414 333.718 130.645L317.877 153.821C317.765 153.985 317.611 154.115 317.43 154.197C317.249 154.278 317.049 154.308 316.852 154.282C316.655 154.256 316.47 154.176 316.316 154.051C316.162 153.926 316.046 153.76 315.981 153.573L304.584 121.503C304.52 121.321 304.506 121.124 304.544 120.935C304.582 120.745 304.671 120.569 304.8 120.425M308.537 126.213L316.444 148.478L317.745 136.941L308.537 126.213ZM319.863 137.312L318.542 149.049L329.726 132.682L319.863 137.312ZM330.736 129.841L323.529 133.223L328.358 128.107L330.736 129.841ZM326.181 127.288L308.588 122.98L318.903 134.99L326.181 127.288Z" fill="white"/>
        <path d="M262.365 235.417L239.629 273.614L262.365 287.256L285.101 273.614L262.365 235.417ZM239.629 278.161L262.365 309.992L285.101 278.161L262.365 291.803L239.629 278.161Z" fill="white"/>
        <path d="M105.198 264.893L92.7438 284.726C92.5146 285.089 92.155 285.351 91.7389 285.457C91.3229 285.563 90.8819 285.506 90.5067 285.297C90.2578 285.158 90.0476 284.959 89.8953 284.717L77.6855 264.885C77.3434 264.329 77.1629 263.689 77.1641 263.036C77.1795 262.073 77.5765 261.155 78.268 260.484C78.9595 259.812 79.889 259.443 80.8526 259.456H102.064C104.088 259.456 105.735 261.054 105.735 263.028C105.735 263.685 105.549 264.331 105.196 264.893M80.6826 264.231L89.7681 278.237V262.818H81.6326C80.6926 262.818 80.2712 263.441 80.684 264.231M93.1295 278.237L102.215 264.231C102.634 263.441 102.205 262.818 101.265 262.818H93.1295V278.237Z" fill="white"/>
    </g>
    <defs>
        <filter id="filter0_f_3176_1927" x="39.4094" y="28.4709" width="331.931" height="217.785" filterUnits="userSpaceOnUse" color-interpolation-filters="sRGB">
            <feFlood flood-opacity="0" result="BackgroundImageFix"/>
            <feBlend mode="normal" in="SourceGraphic" in2="BackgroundImageFix" result="shape"/>
            <feGaussianBlur stdDeviation="2.73085" result="effect1_foregroundBlur_3176_1927"/>
        </filter>
        <filter id="filter1_f_3176_1927" x="14.1939" y="3.25545" width="382.362" height="268.216" filterUnits="userSpaceOnUse" color-interpolation-filters="sRGB">
            <feFlood flood-opacity="0" result="BackgroundImageFix"/>
            <feBlend mode="normal" in="SourceGraphic" in2="BackgroundImageFix" result="shape"/>
            <feGaussianBlur stdDeviation="15.3386" result="effect1_foregroundBlur_3176_1927"/>
        </filter>
        <filter id="filter2_f_3176_1927" x="15.3164" y="140.355" width="380.289" height="266.143" filterUnits="userSpaceOnUse" color-interpolation-filters="sRGB">
            <feFlood flood-opacity="0" result="BackgroundImageFix"/>
            <feBlend mode="normal" in="SourceGraphic" in2="BackgroundImageFix" result="shape"/>
            <feGaussianBlur stdDeviation="14.8203" result="effect1_foregroundBlur_3176_1927"/>
        </filter>
        <clipPath id="clip0_3176_1927">
            <rect width="379.03" height="379.03" fill="white" transform="translate(15.9688 15.9688)"/>
        </clipPath>
    </defs>
</svg>